<svg 
 xmlns="http://www.w3.org/2000/svg"
 xmlns:xlink="http://www.w3.org/1999/xlink"
 width="34px" height="40px">
<path fill-rule="evenodd"  fill="rgb(91, 170, 58)"
 d="M33.192,9.450 L26.555,20.501 C25.672,21.971 24.206,22.944 22.517,23.228 L22.517,28.558 C22.517,34.860 18.393,39.987 13.324,39.987 C8.255,39.987 4.131,34.860 4.131,28.558 L4.131,22.212 C1.777,21.750 0.001,19.745 0.001,17.347 C0.001,14.610 2.317,12.384 5.164,12.384 C8.011,12.384 10.327,14.610 10.327,17.347 C10.327,19.745 8.551,21.750 6.197,22.212 L6.197,28.558 C6.197,33.765 9.394,38.000 13.324,38.000 C17.254,38.000 20.451,33.765 20.451,28.558 L20.451,23.228 C18.761,22.944 17.295,21.971 16.412,20.501 L9.775,9.450 C8.717,7.687 8.717,5.583 9.775,3.820 C10.711,2.262 12.302,1.262 14.121,1.051 C14.474,0.425 15.154,-0.005 15.946,-0.005 C17.097,-0.005 18.030,0.892 18.030,1.998 C18.030,3.104 17.097,4.001 15.946,4.001 C15.208,4.001 14.564,3.630 14.194,3.073 C13.097,3.255 12.137,3.860 11.565,4.813 C10.880,5.954 10.880,7.316 11.565,8.456 L18.202,19.508 C18.887,20.649 20.114,21.330 21.484,21.330 C22.854,21.329 24.081,20.649 24.766,19.508 L31.403,8.456 C32.088,7.316 32.088,5.955 31.403,4.813 C30.824,3.850 29.851,3.243 28.740,3.069 C28.370,3.628 27.725,4.001 26.985,4.001 C25.834,4.001 24.901,3.104 24.901,1.998 C24.901,0.892 25.834,-0.005 26.985,-0.005 C27.776,-0.005 28.456,0.424 28.808,1.048 C30.643,1.250 32.250,2.251 33.192,3.820 C34.251,5.583 34.251,7.687 33.192,9.450 Z"/>
 <path fill-rule="evenodd" transform="translate(2.1, 14.7)"  fill="rgb(255, 255, 255)"
 d="M2.976,-0.000 C4.349,-0.000 5.463,1.119 5.463,2.500 C5.463,3.880 4.349,5.000 2.976,5.000 C1.602,5.000 0.488,3.880 0.488,2.500 C0.488,1.119 1.602,-0.000 2.976,-0.000 Z"/>
</svg>