<svg 
 xmlns="http://www.w3.org/2000/svg"
 xmlns:xlink="http://www.w3.org/1999/xlink"
 width="48px" height="23px">
<path fill-rule="evenodd"  fill="rgb(91, 170, 58)"
 d="M47.018,18.649 L42.542,18.649 C42.331,19.699 41.847,20.659 41.131,21.426 C40.182,22.442 38.928,23.001 37.602,23.001 C36.277,23.001 35.024,22.442 34.075,21.424 C33.359,20.659 32.875,19.699 32.664,18.649 L15.071,18.649 C14.861,19.695 14.376,20.658 13.660,21.426 C12.710,22.442 11.457,23.001 10.132,23.001 C8.806,23.001 7.552,22.442 6.602,21.426 C5.887,20.659 5.404,19.699 5.192,18.649 L0.981,18.649 C0.440,18.649 -0.000,18.165 -0.000,17.569 L-0.000,13.712 C-0.000,12.112 0.524,10.563 1.476,9.351 C2.429,8.140 3.747,7.345 5.188,7.114 L11.132,6.161 L19.419,1.528 C21.209,0.526 23.217,-0.003 25.226,-0.003 L30.832,-0.003 C32.473,-0.003 34.077,0.338 35.599,1.009 L44.744,5.039 C46.722,5.911 47.999,7.988 47.999,10.330 L47.999,17.569 C47.999,18.165 47.560,18.649 47.018,18.649 ZM37.476,21.421 C39.401,21.421 41.159,20.003 41.248,17.686 C41.337,15.388 39.718,13.303 37.704,13.289 C35.436,13.232 34.161,15.398 34.118,17.440 C34.076,19.483 35.551,21.421 37.476,21.421 ZM10.044,21.540 C11.895,21.632 13.566,19.664 13.705,17.582 C13.847,15.722 12.308,13.381 10.004,13.503 C8.235,13.584 6.693,15.232 6.630,17.616 C6.566,20.048 8.224,21.450 10.044,21.540 ZM1.774,12.199 C3.570,12.096 4.911,10.790 4.985,8.917 C3.354,8.891 2.053,10.696 1.774,12.199 ZM24.187,1.708 C22.842,1.586 21.057,2.295 19.850,3.019 C19.841,3.016 15.209,5.713 14.004,6.601 C16.487,6.647 22.950,6.585 24.181,6.585 C24.221,5.518 24.208,2.207 24.187,1.708 ZM30.866,1.551 C30.866,1.551 26.181,1.551 25.881,1.580 C25.856,2.318 25.757,5.692 25.923,6.630 C27.160,6.705 34.631,6.661 34.630,6.658 C34.706,6.693 32.441,3.122 31.857,2.329 C31.638,1.916 31.336,1.458 30.866,1.551 ZM35.136,2.665 C33.269,1.748 34.349,2.773 34.256,2.766 C34.256,2.766 36.256,6.105 36.641,6.735 C37.529,6.792 41.424,6.827 44.250,6.712 C42.868,5.894 35.981,2.830 35.136,2.665 ZM45.749,8.303 C45.445,8.282 43.892,8.339 43.892,8.339 L43.892,9.744 C43.830,10.942 44.653,11.789 45.569,11.852 C46.427,11.911 46.352,11.850 46.352,11.850 C46.368,11.925 46.434,11.722 46.413,11.084 C46.391,10.445 46.438,10.297 46.438,10.297 C46.482,9.546 46.230,8.904 45.749,8.303 ZM46.373,13.298 L45.588,13.269 C43.792,13.269 42.331,11.663 42.331,9.687 L42.331,8.282 L36.119,8.282 C36.118,8.282 36.118,8.282 36.118,8.282 C36.117,8.282 36.117,8.282 36.117,8.282 L10.588,7.850 L6.460,8.510 C6.310,11.454 4.745,13.456 1.610,13.626 C1.596,14.526 1.559,16.475 1.623,17.048 C2.681,17.042 3.787,17.031 5.134,17.017 C5.623,13.889 7.640,11.877 10.132,11.877 C12.627,11.876 15.096,14.001 15.037,17.085 L32.534,17.085 C32.945,14.469 34.487,11.919 37.603,11.877 C40.933,11.813 42.369,14.448 42.780,17.064 L46.352,17.128 C46.342,17.128 46.460,16.851 46.471,16.575 C46.483,16.295 46.373,13.298 46.373,13.298 ZM27.208,13.127 L20.705,13.127 C20.163,13.127 19.714,12.982 19.714,12.386 C19.714,11.790 20.163,11.574 20.705,11.574 L27.208,11.574 C27.750,11.574 28.187,11.790 28.187,12.386 C28.187,12.982 27.750,13.127 27.208,13.127 ZM10.131,16.007 C10.850,16.007 11.432,16.649 11.432,17.439 C11.432,18.229 10.850,18.870 10.131,18.870 C9.412,18.870 8.830,18.229 8.830,17.439 C8.830,16.649 9.412,16.007 10.131,16.007 ZM37.603,16.007 C38.322,16.007 38.904,16.649 38.904,17.439 C38.904,18.229 38.322,18.870 37.603,18.870 C36.884,18.870 36.302,18.229 36.302,17.439 C36.302,16.649 36.884,16.007 37.603,16.007 Z"/>
</svg>