<svg 
 xmlns="http://www.w3.org/2000/svg"
 xmlns:xlink="http://www.w3.org/1999/xlink"
 width="38px" height="40px">
<path fill-rule="evenodd"  fill="rgb(91, 170, 58)"
 d="M31.782,21.739 L31.782,32.056 C31.772,33.073 31.618,33.722 30.751,33.713 C29.861,33.678 29.774,32.952 29.774,31.995 L29.774,21.659 C29.774,20.701 29.913,20.026 30.682,19.998 C31.545,20.012 31.868,20.780 31.782,21.739 ZM37.744,27.561 C37.707,27.598 37.671,27.635 37.634,27.672 C37.488,28.998 36.866,30.214 35.952,31.135 C35.915,31.172 35.842,31.246 35.805,31.283 L35.805,31.430 L35.805,35.741 C35.805,36.331 35.769,36.847 35.623,37.289 C35.476,37.730 35.293,38.099 35.001,38.431 C34.708,38.762 34.342,39.021 33.940,39.168 C33.648,39.278 33.318,39.352 32.953,39.352 L32.587,39.352 L22.712,39.352 C22.419,39.905 21.856,40.000 21.198,40.000 L16.883,40.000 C15.932,40.000 15.178,39.499 15.178,38.541 C15.178,37.583 15.932,37.012 16.883,37.012 L21.225,37.012 C21.847,37.012 22.456,37.178 22.749,37.730 L32.624,37.730 L32.660,37.730 C32.916,37.767 33.172,37.730 33.355,37.657 C33.538,37.583 33.684,37.473 33.794,37.362 C33.940,37.215 34.013,37.031 34.086,36.773 C34.160,36.478 34.196,36.146 34.196,35.741 L34.196,32.388 C33.940,32.499 33.648,32.609 33.392,32.683 C33.428,32.462 33.465,32.277 33.465,32.056 L33.465,21.739 C33.465,21.519 33.428,21.297 33.392,21.113 C34.379,21.408 35.293,21.960 35.988,22.660 C36.061,22.734 36.135,22.808 36.208,22.881 L36.208,19.787 C36.208,18.754 36.135,17.760 35.952,16.765 C35.769,15.770 35.513,14.812 35.184,13.855 C34.818,12.933 34.416,12.012 33.904,11.127 C33.392,10.243 32.843,9.433 32.185,8.659 C32.112,8.585 32.075,8.511 32.038,8.437 C31.518,8.456 31.252,8.017 30.895,7.640 C27.708,4.277 22.887,2.601 19.106,2.564 C15.332,2.527 10.625,4.395 7.398,7.691 C6.770,8.282 6.429,8.465 5.998,8.437 C5.809,8.657 5.888,8.585 5.852,8.659 C5.193,9.433 4.645,10.243 4.133,11.127 C3.621,11.975 3.182,12.896 2.853,13.855 C2.524,14.776 2.268,15.770 2.085,16.765 C1.902,17.760 1.829,18.791 1.829,19.787 L1.829,22.844 C1.902,22.771 1.975,22.697 2.048,22.624 C2.780,21.887 3.657,21.371 4.645,21.076 C4.608,21.297 4.572,21.481 4.572,21.703 L4.572,32.019 C4.572,32.241 4.608,32.462 4.645,32.646 C3.657,32.351 2.743,31.798 2.048,31.098 C1.170,30.178 0.548,28.998 0.366,27.635 C0.329,27.598 0.292,27.561 0.256,27.525 C0.110,27.340 -0.000,27.119 -0.000,26.861 L-0.000,19.750 C-0.000,18.644 0.110,17.539 0.292,16.433 C0.512,15.328 0.804,14.259 1.170,13.191 C1.573,12.159 2.048,11.127 2.597,10.170 C3.145,9.211 3.767,8.290 4.499,7.443 C4.572,7.332 4.681,7.259 4.755,7.222 C4.645,6.706 4.755,6.190 5.157,5.785 C8.997,1.916 14.044,-0.000 19.055,-0.000 C24.065,-0.000 29.112,1.953 32.953,5.822 C33.318,6.227 33.465,6.743 33.355,7.259 C33.465,7.332 33.538,7.406 33.611,7.480 C34.306,8.327 34.964,9.248 35.513,10.206 C36.098,11.165 36.573,12.159 36.939,13.228 C37.305,14.259 37.597,15.365 37.707,16.471 C37.890,17.539 38.000,18.681 38.000,19.787 L38.000,26.898 C38.000,27.156 37.927,27.376 37.744,27.561 ZM7.264,20.081 C7.965,20.081 8.334,20.536 8.334,21.494 L8.334,31.830 C8.307,33.255 8.157,33.692 7.273,33.732 C6.531,33.691 6.271,33.217 6.327,32.093 L6.327,21.776 C6.317,20.782 6.535,20.081 7.264,20.081 Z"/>
</svg>