<svg 
 xmlns="http://www.w3.org/2000/svg"
 xmlns:xlink="http://www.w3.org/1999/xlink"
 width="35px" height="40px">
<path fill-rule="evenodd"  fill="rgb(91, 170, 58)"
 d="M21.591,9.215 C22.156,9.215 22.625,9.687 22.625,10.269 L22.625,11.194 L23.529,11.194 C24.098,11.194 24.563,11.665 24.563,12.248 C24.563,12.830 24.098,13.302 23.529,13.302 L22.625,13.302 L22.625,14.226 C22.625,14.808 22.156,15.280 21.591,15.280 C21.018,15.280 20.557,14.808 20.557,14.226 L20.557,13.302 L19.651,13.302 C19.080,13.302 18.617,12.830 18.617,12.248 C18.617,11.665 19.080,11.194 19.651,11.194 L20.557,11.194 L20.557,10.269 C20.557,9.686 21.018,9.215 21.591,9.215 ZM29.302,4.897 L29.302,39.183 C29.302,39.763 28.600,40.010 28.035,40.010 L1.032,40.010 C0.463,40.010 -0.002,39.536 -0.002,38.956 L-0.002,4.516 C-0.002,3.933 1.052,3.265 1.620,3.265 L8.134,3.265 C8.119,3.267 8.152,2.210 8.152,0.869 C8.120,-0.026 8.350,-0.040 8.849,-0.012 L20.218,-0.012 C20.783,-0.012 21.252,0.461 21.252,1.042 L21.161,3.265 L27.674,3.265 C28.521,3.056 29.467,4.086 29.302,4.897 ZM9.762,6.530 C9.756,6.748 19.519,6.522 19.519,6.522 L19.532,1.631 L9.762,1.631 L9.762,6.530 ZM27.674,4.897 L21.161,4.897 L21.252,7.370 C21.252,7.952 20.783,8.424 20.218,8.424 L8.849,8.424 C8.287,8.381 8.150,8.197 8.098,7.571 C8.155,6.394 8.200,4.919 8.134,4.897 L1.620,4.897 L1.620,38.367 L27.674,38.367 L27.674,4.897 ZM23.771,17.648 L5.294,17.648 C4.722,17.648 4.261,18.122 4.261,18.703 C4.261,19.287 4.722,19.758 5.294,19.758 L23.771,19.758 C24.340,19.758 24.805,19.287 24.805,18.703 C24.805,18.122 24.340,17.648 23.771,17.648 ZM23.771,22.528 L5.294,22.528 C4.722,22.528 4.261,22.996 4.261,23.582 C4.261,24.162 4.722,24.636 5.294,24.636 L23.771,24.636 C24.340,24.636 24.805,24.162 24.805,23.582 C24.805,22.996 24.340,22.528 23.771,22.528 ZM23.771,27.404 L5.294,27.404 C4.722,27.404 4.261,27.877 4.261,28.458 C4.261,29.039 4.722,29.512 5.294,29.512 L23.771,29.512 C24.340,29.512 24.805,29.039 24.805,28.458 C24.805,27.873 24.340,27.404 23.771,27.404 ZM23.771,32.279 L5.294,32.279 C4.722,32.279 4.261,32.749 4.261,33.334 C4.261,33.915 4.722,34.388 5.294,34.388 L23.771,34.388 C24.340,34.388 24.805,33.915 24.805,33.334 C24.805,32.749 24.340,32.279 23.771,32.279 ZM33.292,16.054 C32.105,16.054 31.523,17.035 31.523,18.244 L31.523,35.167 C31.523,35.986 31.905,36.360 32.559,36.734 L32.559,39.183 C32.517,39.754 33.019,39.999 33.502,39.973 C33.985,39.948 34.129,39.746 34.172,39.075 C34.187,38.367 34.187,36.734 34.187,36.734 C34.841,36.360 35.002,35.921 35.002,35.101 L35.002,17.959 C34.949,17.005 34.196,16.055 33.292,16.054 Z"/>
</svg>