<svg 
 xmlns="http://www.w3.org/2000/svg"
 xmlns:xlink="http://www.w3.org/1999/xlink"
 width="34px" height="41px">
<path fill-rule="evenodd"  fill="rgb(91, 170, 58)"
 d="M33.575,35.524 C33.493,35.739 33.335,35.921 33.145,36.045 C25.026,41.185 8.983,41.460 0.863,36.045 C0.665,35.921 0.516,35.739 0.433,35.524 C-0.005,34.413 0.003,32.203 0.012,31.771 C0.012,31.764 0.012,31.755 0.012,31.747 C0.020,31.680 0.020,31.614 0.020,31.540 C0.070,29.908 0.177,26.074 3.766,24.839 C3.791,24.832 3.815,24.823 3.848,24.815 C7.594,23.862 10.679,21.709 10.712,21.685 C11.216,21.328 11.911,21.453 12.266,21.958 C12.622,22.462 12.498,23.159 11.993,23.515 C11.853,23.606 8.562,25.908 4.444,26.968 C2.517,27.656 2.302,29.718 2.244,31.606 C2.244,31.680 2.236,31.747 2.236,31.812 C2.220,32.558 2.277,33.709 2.410,34.372 C3.757,35.134 9.041,37.776 16.996,37.776 C24.984,37.776 30.235,35.142 31.574,34.380 C31.706,33.718 31.756,32.567 31.748,31.821 C31.740,31.755 31.740,31.688 31.740,31.614 C31.682,29.726 31.467,27.664 29.540,26.977 C25.422,25.916 22.131,23.622 21.990,23.523 C21.486,23.167 21.362,22.471 21.717,21.966 C22.073,21.460 22.768,21.337 23.272,21.692 C23.305,21.717 26.406,23.871 30.135,24.823 C30.160,24.832 30.193,24.839 30.218,24.848 C33.807,26.074 33.914,29.908 33.964,31.548 C33.964,31.622 33.972,31.688 33.972,31.755 C33.972,31.764 33.972,31.771 33.972,31.780 C33.981,32.210 33.989,34.422 33.575,35.524 ZM17.112,21.560 C17.087,21.560 17.054,21.560 17.029,21.560 C17.013,21.560 16.996,21.560 16.980,21.560 C16.930,21.560 16.889,21.560 16.847,21.560 C14.425,21.519 12.465,20.665 11.026,19.034 C7.842,15.440 8.372,9.278 8.429,8.690 C8.636,4.243 10.753,2.131 12.489,1.146 C14.218,0.160 16.020,0.012 16.938,0.012 L16.988,0.012 C16.996,0.012 17.013,0.012 17.021,0.012 L17.079,0.012 C18.749,0.044 20.246,0.442 21.527,1.179 C23.247,2.165 25.331,4.277 25.538,8.690 C25.596,9.278 26.125,15.440 22.941,19.034 C21.494,20.665 19.535,21.519 17.112,21.560 ZM23.322,8.897 C23.313,8.880 23.313,8.856 23.313,8.831 C23.057,3.216 19.262,2.305 17.029,2.255 C17.004,2.255 16.980,2.255 16.963,2.255 L16.930,2.255 C15.127,2.255 10.918,2.893 10.646,8.831 C10.646,8.848 10.637,8.873 10.637,8.897 C10.629,8.947 10.067,14.604 12.688,17.552 C13.722,18.727 15.119,19.308 16.938,19.324 C16.955,19.324 16.963,19.324 16.980,19.324 C16.996,19.324 17.004,19.324 17.021,19.324 C18.848,19.308 20.237,18.727 21.279,17.552 C23.909,14.586 23.330,8.955 23.322,8.897 Z"/>
</svg>