<svg 
 xmlns="http://www.w3.org/2000/svg"
 xmlns:xlink="http://www.w3.org/1999/xlink"
 width="41px" height="40px">
<path fill-rule="evenodd"  fill="rgb(91, 170, 58)"
 d="M40.921,14.345 L40.921,36.087 C41.143,38.327 39.373,40.075 37.017,40.000 L17.931,40.000 L17.931,40.000 C17.349,39.997 16.785,39.605 16.655,38.952 L14.782,29.564 L4.918,29.564 C2.287,29.686 0.806,27.861 1.014,25.650 L1.014,3.908 C0.698,1.449 2.556,-0.205 4.918,-0.006 L24.004,-0.006 C24.628,-0.006 25.163,0.437 25.282,1.052 C26.281,6.233 26.708,8.447 27.091,10.431 L37.017,10.431 C39.329,10.369 41.452,11.980 40.921,14.345 ZM18.275,37.368 C18.275,37.368 27.221,29.262 27.023,29.264 L16.909,29.529 C16.877,29.635 18.275,37.368 18.275,37.368 ZM23.162,1.767 C23.246,1.874 5.863,1.750 4.970,1.765 C3.871,1.700 2.974,2.878 2.927,4.319 C2.985,5.408 2.875,24.685 2.886,25.866 C3.420,27.357 4.608,27.669 5.162,27.508 C5.121,27.507 26.986,27.495 28.250,27.500 C25.248,9.608 25.536,13.516 23.162,1.767 ZM36.758,12.503 L27.612,12.503 C28.105,15.053 28.805,19.304 30.487,28.011 C30.577,28.477 30.408,28.923 30.091,29.217 L30.092,29.218 L19.456,38.336 C19.456,38.336 35.284,38.263 36.698,38.304 C37.584,38.330 38.415,37.659 38.816,37.350 L39.233,36.699 C39.233,36.699 39.251,14.947 39.253,15.004 C39.572,14.038 37.756,12.287 36.758,12.503 ZM15.329,19.997 C12.458,19.988 10.123,17.657 10.123,14.779 C10.123,11.902 12.458,9.561 15.329,9.561 C16.030,9.561 16.712,9.699 17.354,9.972 C18.016,10.254 18.325,11.019 18.045,11.682 C17.795,12.291 16.843,12.063 16.605,11.976 C16.368,11.888 15.661,11.522 14.476,11.722 C12.902,11.988 11.922,13.390 12.045,15.051 C12.193,17.061 13.591,18.226 15.332,18.233 C16.599,18.239 18.383,17.098 18.586,15.594 C17.577,15.642 17.330,15.583 16.630,15.588 C15.984,15.671 15.374,15.408 15.330,14.696 C15.281,13.910 15.867,13.781 16.585,13.795 L19.186,13.795 C19.901,13.921 20.414,14.307 20.463,14.846 C20.411,17.771 18.189,20.007 15.329,19.997 Z"/>
</svg>