<svg 
 xmlns="http://www.w3.org/2000/svg"
 xmlns:xlink="http://www.w3.org/1999/xlink"
 width="40px" height="40px">
<path fill-rule="evenodd"  fill="rgb(91, 170, 58)"
 d="M28.576,-0.001 C35.823,-0.100 41.787,6.136 39.507,13.932 C38.641,16.892 36.665,18.314 34.921,20.209 C36.307,21.158 37.530,22.291 38.259,23.574 C41.870,29.937 38.122,37.433 32.557,39.242 C27.633,40.842 22.124,38.369 20.244,34.907 C17.775,37.279 16.349,39.242 12.218,39.883 C4.511,41.079 -2.191,32.997 0.676,25.568 C2.192,21.639 5.869,19.065 8.626,16.305 C11.938,12.988 15.251,9.670 18.563,6.353 C20.244,4.670 21.869,2.703 23.913,1.377 C25.284,0.488 26.880,0.133 28.576,-0.001 ZM28.969,2.194 C27.328,2.303 25.894,2.556 24.823,3.305 C22.848,5.039 20.455,7.511 19.496,8.539 C18.532,9.573 16.527,11.219 14.964,12.970 C18.002,15.922 20.347,18.296 22.690,20.668 C22.716,20.668 22.741,20.668 22.767,20.668 C23.506,20.235 24.245,19.801 24.984,19.367 C27.146,18.404 29.783,18.452 32.880,19.233 C34.729,17.922 36.527,15.912 37.312,14.334 C39.785,8.646 35.109,1.884 28.969,2.194 ZM13.600,14.391 C10.884,16.990 2.808,23.260 2.128,27.844 C1.493,34.391 7.173,39.415 12.840,37.795 C15.637,36.996 17.841,34.702 19.173,33.060 C18.262,27.967 18.817,25.665 21.095,21.983 C18.804,19.395 16.052,16.635 13.600,14.391 ZM27.719,20.832 C25.188,20.735 22.736,22.991 21.538,25.782 C19.097,31.326 22.977,37.248 27.747,37.637 C27.766,33.018 27.806,27.322 27.728,25.509 C27.797,23.845 27.774,22.294 27.719,20.832 ZM29.904,20.860 C29.799,26.283 29.759,32.658 29.830,37.588 C30.319,37.637 30.287,37.690 31.339,37.524 C37.997,35.903 41.613,22.663 29.904,20.860 Z"/>
</svg>