<svg 
 xmlns="http://www.w3.org/2000/svg"
 xmlns:xlink="http://www.w3.org/1999/xlink"
 width="43px" height="40px">
<path fill-rule="evenodd"  fill="rgb(91, 170, 58)"
 d="M41.661,12.495 L35.505,12.495 L35.505,33.573 C35.505,37.116 32.644,40.000 29.127,40.000 C29.018,40.000 28.921,39.973 28.814,39.967 L28.814,40.000 L6.111,40.000 L6.111,39.973 C2.721,39.828 0.001,37.024 0.001,33.573 L0.001,30.292 C0.001,29.548 0.600,28.944 1.339,28.944 L5.942,28.944 L6.111,4.890 C6.111,2.199 8.313,0.001 11.018,0.001 L37.914,0.001 L37.914,0.001 C40.718,0.001 42.999,2.299 42.999,5.124 L42.999,11.147 C42.999,11.891 42.400,12.495 41.661,12.495 ZM2.011,30.960 L2.011,33.547 C2.010,35.658 4.254,37.955 6.297,37.985 L6.353,37.985 C6.359,37.837 6.363,37.862 6.367,37.985 L24.866,37.985 C23.921,36.816 23.386,35.243 23.386,33.519 L23.386,30.960 L2.011,30.960 ZM11.018,1.987 C9.789,1.987 8.209,3.579 8.209,4.792 L8.051,28.944 L24.087,28.944 C24.826,28.944 25.425,29.548 25.425,30.292 L25.425,33.573 C25.425,35.629 26.976,37.941 29.016,37.998 C31.100,38.055 33.442,36.178 33.463,33.636 C33.471,31.681 33.386,6.360 33.402,5.143 C33.450,3.937 33.771,2.855 34.316,1.987 L11.018,1.987 ZM40.976,5.033 C40.839,2.587 39.388,2.018 37.914,2.004 C36.440,1.991 35.505,3.786 35.505,5.124 L35.506,10.483 L40.960,10.510 L40.933,9.802 C40.933,9.802 41.004,7.089 40.976,5.033 ZM27.904,25.650 L12.974,25.650 C12.235,25.650 11.796,25.187 11.810,24.629 C11.824,24.071 12.274,23.607 12.981,23.686 L27.923,23.686 C28.658,23.648 29.237,23.982 29.224,24.662 C29.210,25.343 28.643,25.650 27.904,25.650 ZM12.981,18.293 L27.923,18.293 C28.650,18.224 29.201,18.626 29.201,19.307 C29.201,19.988 28.670,20.286 27.931,20.286 L12.974,20.286 C12.235,20.286 11.794,19.869 11.766,19.256 C11.739,18.643 12.265,18.219 12.981,18.293 ZM27.821,14.922 L12.891,14.922 C12.152,14.922 11.780,14.448 11.793,13.903 C11.807,13.359 12.258,12.862 12.981,12.899 L27.923,12.899 C28.661,12.870 29.237,13.280 29.217,13.985 C29.199,14.666 28.560,14.922 27.821,14.922 ZM19.888,9.503 L12.974,9.503 C12.235,9.503 11.729,9.217 11.716,8.509 C11.702,7.749 12.203,7.477 12.981,7.506 L19.894,7.506 C20.633,7.506 21.099,7.808 21.092,8.475 C21.084,9.110 20.617,9.476 19.888,9.503 Z"/>
</svg>