<svg 
 xmlns="http://www.w3.org/2000/svg"
 xmlns:xlink="http://www.w3.org/1999/xlink"
 width="48px" height="32px">
<path fill-rule="evenodd"  fill="rgb(91, 170, 58)"
 d="M-0.002,-0.002 C3.060,-0.002 6.124,-0.002 9.186,-0.002 C9.186,1.675 9.186,3.352 9.186,5.030 C17.512,4.520 19.068,5.560 19.140,10.781 C23.767,10.709 35.170,10.841 41.541,10.797 C43.659,10.914 44.925,11.889 45.590,12.731 C46.639,14.216 46.517,16.315 46.491,18.116 C47.044,18.144 47.302,18.118 48.000,18.134 C48.006,22.779 47.899,27.126 47.932,31.997 C47.421,32.004 46.999,31.990 46.131,31.988 C46.131,30.190 46.131,28.393 46.131,26.596 C31.712,26.596 17.288,26.596 1.774,26.586 C1.775,28.415 1.782,30.077 1.808,31.989 C0.282,31.973 0.872,31.987 -0.002,31.988 C-0.002,21.326 -0.002,10.660 -0.002,-0.002 ZM1.795,1.663 C1.749,7.833 1.719,13.033 1.784,18.183 C3.954,18.149 5.039,18.149 7.350,18.127 C7.392,13.008 7.362,7.833 7.352,1.674 C4.986,1.649 4.047,1.689 1.795,1.663 ZM9.186,10.781 C11.483,10.781 13.781,10.781 17.266,10.814 C17.563,9.386 17.114,7.473 15.908,6.911 C14.556,6.284 11.209,6.360 9.227,6.552 C9.189,7.995 9.172,8.099 9.186,8.265 C9.186,9.103 9.186,9.942 9.186,10.781 ZM9.210,12.504 C9.186,15.034 9.186,16.592 9.186,18.149 C20.671,18.149 32.159,18.149 44.647,18.151 C44.748,17.011 44.815,14.898 44.480,14.066 C43.917,13.013 43.308,12.578 42.004,12.517 C31.099,12.459 20.122,12.467 9.210,12.504 ZM1.725,19.850 C1.774,21.917 1.766,22.417 1.780,24.915 C3.246,25.053 31.708,24.965 46.127,24.920 C46.131,22.882 46.131,21.863 46.131,19.794 C31.712,19.749 17.263,19.818 1.725,19.850 Z"/>
</svg>