<svg 
 xmlns="http://www.w3.org/2000/svg"
 xmlns:xlink="http://www.w3.org/1999/xlink"
 width="31px" height="40px">
<path fill-rule="evenodd"  fill="rgb(91, 170, 58)"
 d="M13.890,0.025 C22.990,-0.412 28.533,4.471 30.562,11.658 C31.544,15.137 30.719,20.052 29.512,22.669 C29.111,23.713 28.773,24.120 28.452,24.701 C27.428,26.206 26.350,27.440 25.240,28.929 C23.418,31.394 21.483,33.522 19.661,35.937 C18.974,36.847 18.273,37.737 17.550,38.603 C17.243,38.970 16.794,39.499 16.491,39.743 C16.112,39.881 15.910,40.001 15.842,39.951 C14.598,40.270 13.697,38.930 13.115,38.168 C12.144,36.835 11.173,35.501 10.202,34.168 C9.356,33.198 8.510,32.228 7.664,31.257 C7.094,30.623 6.524,29.988 5.954,29.353 C3.845,26.665 1.743,24.108 0.610,20.402 C0.058,18.599 -0.160,15.897 0.129,13.601 C0.290,12.315 0.573,11.038 1.008,9.971 C1.847,7.908 2.896,6.618 4.110,5.113 C5.447,3.454 8.248,1.635 10.416,0.814 C11.422,0.442 12.565,0.168 13.890,0.025 ZM15.133,2.132 C12.161,2.153 8.530,3.592 5.808,6.469 C3.256,9.088 2.458,11.803 2.266,13.323 C1.993,15.748 1.835,19.083 2.917,20.941 C4.435,23.996 5.707,26.140 8.829,29.369 C10.486,31.255 12.226,33.258 13.928,35.688 C14.491,36.356 14.553,36.696 15.520,37.515 C17.609,35.414 21.769,29.856 24.235,26.827 C25.824,24.698 26.550,23.897 27.302,22.622 C28.967,18.998 29.069,16.519 28.596,12.673 C27.963,7.527 22.668,1.842 15.133,2.132 ZM10.175,11.397 C11.324,11.397 12.473,11.397 13.622,11.397 C13.622,12.585 13.622,13.773 13.622,14.961 C12.473,14.961 11.324,14.961 10.175,14.961 C10.175,13.773 10.175,12.585 10.175,11.397 ZM17.069,11.397 C18.227,11.397 19.385,11.397 20.543,11.397 C20.543,12.585 20.543,13.773 20.543,14.961 C19.385,14.961 18.227,14.961 17.069,14.961 C17.069,13.773 17.069,12.585 17.069,11.397 ZM6.702,14.961 C7.860,14.961 9.018,14.961 10.175,14.961 C10.175,16.149 10.175,17.337 10.175,18.525 C9.018,18.525 7.860,18.525 6.702,18.525 C6.702,17.337 6.702,16.149 6.702,14.961 ZM13.622,14.961 C14.771,14.961 15.920,14.961 17.069,14.961 C17.069,16.149 17.069,17.337 17.069,18.525 C15.920,18.525 14.771,18.525 13.622,18.525 C13.622,17.337 13.622,16.149 13.622,14.961 ZM20.543,14.961 C21.692,14.961 22.841,14.961 23.990,14.961 C23.990,16.149 23.990,17.337 23.990,18.525 C22.841,18.525 21.692,18.525 20.543,18.525 C20.543,17.337 20.543,16.149 20.543,14.961 Z"/>
</svg>