<svg 
 xmlns="http://www.w3.org/2000/svg"
 xmlns:xlink="http://www.w3.org/1999/xlink"
 width="41px" height="40px">
<path fill-rule="evenodd"  fill="rgb(91, 170, 58)"
 d="M0.000,-0.000 C7.129,-0.000 14.260,-0.000 21.389,-0.000 C21.996,5.284 22.604,10.569 23.212,15.853 C23.390,18.164 23.569,20.476 23.748,22.786 C24.021,23.197 25.781,24.297 26.410,24.406 C27.040,24.514 27.391,24.519 27.940,24.342 C28.489,24.166 29.133,23.540 29.878,23.099 C31.158,22.307 33.296,21.963 35.053,22.383 C36.809,22.796 38.602,24.162 39.142,25.584 C41.204,30.687 39.130,34.232 37.337,36.029 C35.119,38.252 30.093,39.709 26.026,38.422 C21.361,36.945 18.177,33.952 13.482,32.521 C9.916,31.434 6.026,32.318 4.074,34.289 C3.143,35.229 2.681,36.201 2.219,37.847 C2.062,38.409 2.094,39.318 1.930,39.944 C1.341,39.963 0.751,39.981 0.161,39.999 C-0.223,34.917 2.878,31.817 6.655,30.612 C8.188,30.123 11.053,29.836 12.856,30.263 C16.141,31.041 18.730,32.646 21.428,34.043 C23.193,35.255 25.347,36.389 27.275,36.782 C29.199,37.174 30.096,37.072 31.290,36.854 C35.131,36.153 36.862,34.198 37.899,31.416 C38.561,28.940 37.633,25.660 35.327,24.690 C34.870,24.498 34.387,24.532 33.808,24.478 C30.252,24.146 29.679,27.305 26.106,26.485 C25.043,26.240 24.249,25.762 23.533,25.179 C23.176,24.826 22.818,24.472 22.461,24.119 C19.808,23.892 17.154,23.666 14.501,23.439 C9.668,22.859 4.833,22.279 0.000,21.699 C0.000,14.467 0.000,7.232 0.000,-0.000 ZM7.961,1.794 C6.585,1.813 5.209,1.831 3.833,1.849 C6.343,4.359 8.854,6.870 11.365,9.381 C11.409,9.336 11.454,9.290 11.499,9.245 C11.961,9.017 13.252,7.528 13.616,7.070 C15.269,5.330 16.922,3.589 18.575,1.849 C18.575,1.840 18.575,1.831 18.575,1.822 C15.037,1.813 11.498,1.804 7.961,1.794 ZM1.796,2.447 C1.787,7.785 1.778,13.125 1.769,18.463 C4.485,15.862 7.202,13.260 9.917,10.659 C7.211,7.922 4.503,5.184 1.796,2.447 ZM19.861,3.317 C17.583,5.846 15.304,8.375 13.027,10.904 C13.205,11.085 13.384,11.266 13.563,11.448 C14.501,12.417 15.439,13.387 16.377,14.357 C17.440,15.472 18.503,16.587 19.566,17.702 C20.353,18.581 21.139,19.460 21.925,20.339 C21.237,14.666 20.549,8.991 19.861,3.317 ZM11.445,11.855 C8.506,14.638 5.566,17.421 2.627,20.203 C3.994,20.357 5.361,20.512 6.728,20.665 C11.472,21.182 16.217,21.699 20.960,22.215 C20.924,22.179 20.889,22.143 20.853,22.107 C20.603,21.826 20.353,21.545 20.102,21.264 C19.406,20.502 18.709,19.741 18.012,18.980 C15.823,16.605 13.634,14.230 11.445,11.855 Z"/>
</svg>