<svg 
 xmlns="http://www.w3.org/2000/svg"
 xmlns:xlink="http://www.w3.org/1999/xlink"
 width="18px" height="18px">
<path fill-rule="evenodd"  fill="rgb(59, 89, 189)"
 d="M8.898,17.958 C7.326,17.958 5.752,17.958 4.180,17.958 C3.410,17.958 2.423,18.065 1.789,17.874 C1.131,17.676 0.551,17.198 0.279,16.613 C-0.160,15.669 0.048,13.810 0.048,12.494 C0.048,9.931 0.048,7.367 0.048,4.804 C0.048,2.457 -0.141,0.879 1.579,0.202 C2.462,-0.145 4.418,0.055 5.585,0.055 C8.094,0.055 10.604,0.055 13.114,0.055 C15.499,0.055 17.081,-0.147 17.769,1.610 C18.091,2.430 17.916,4.179 17.916,5.267 C17.916,8.047 17.916,10.828 17.916,13.609 C17.916,15.227 18.007,16.639 17.119,17.349 C16.018,18.230 13.626,17.965 11.667,17.958 "/>
<path fill-rule="evenodd"  fill="rgb(255, 255, 255)"
 d="M12.022,8.663 C12.674,8.657 13.447,8.548 14.081,8.641 C14.314,8.675 14.601,8.600 14.774,8.697 C14.844,8.784 14.913,8.871 14.983,8.957 C15.048,9.135 14.909,9.909 14.879,10.076 C14.824,10.371 14.794,11.195 14.659,11.365 C14.543,11.511 14.242,11.499 14.011,11.534 C13.439,11.622 12.642,11.611 12.057,11.534 C12.053,11.538 12.049,11.542 12.045,11.546 C12.037,13.696 12.030,15.848 12.022,17.999 C11.066,17.999 10.110,17.999 9.154,17.999 C9.154,15.845 9.154,13.690 9.154,11.534 C9.150,11.534 9.146,11.534 9.142,11.534 C8.730,11.644 7.216,11.570 7.083,11.365 C6.978,11.203 7.002,10.850 7.002,10.607 C7.002,10.039 6.977,9.063 7.211,8.720 C7.755,8.562 8.507,8.662 9.154,8.663 C9.130,5.742 9.240,3.628 11.756,3.148 C12.433,3.018 13.139,3.001 13.919,3.001 C14.159,3.001 14.645,2.977 14.740,3.125 C14.889,3.294 14.876,3.721 14.902,3.995 C14.935,4.351 15.012,5.308 14.786,5.476 C14.296,5.840 13.006,5.393 12.450,5.815 C11.833,6.283 12.021,7.651 12.022,8.663 Z"/>
</svg>