<svg 
 xmlns="http://www.w3.org/2000/svg"
 xmlns:xlink="http://www.w3.org/1999/xlink"
 width="18px" height="18px">
<defs>
<linearGradient id="PSgrad_0" x1="70.711%" x2="0%" y1="0%" y2="70.711%">
  <stop offset="0%" stop-color="rgb(120,0,243)" stop-opacity="1" />
  <stop offset="42%" stop-color="rgb(215,40,139)" stop-opacity="1" />
  <stop offset="89%" stop-color="rgb(251,196,11)" stop-opacity="1" />
</linearGradient>

</defs>
<path fill-rule="evenodd"  fill="url(#PSgrad_0)"
 d="M2.000,-0.000 L16.000,-0.000 C17.104,-0.000 18.000,0.895 18.000,2.000 L18.000,16.000 C18.000,17.105 17.104,18.000 16.000,18.000 L2.000,18.000 C0.895,18.000 -0.000,17.105 -0.000,16.000 L-0.000,2.000 C-0.000,0.895 0.895,-0.000 2.000,-0.000 Z"/>
<path fill-rule="evenodd"  fill="rgb(255, 255, 255)"
 d="M12.662,15.998 C10.956,15.988 7.265,15.992 5.662,15.994 C3.734,16.011 2.079,13.986 2.066,12.332 C1.995,11.108 1.984,8.713 2.084,6.237 C2.136,4.966 2.457,4.034 2.927,3.462 C3.556,2.626 4.379,2.052 5.437,2.051 C8.308,1.964 11.009,1.990 12.861,2.075 C14.706,2.162 15.937,3.895 15.949,4.897 C15.975,7.147 15.996,10.215 16.007,12.700 C16.155,13.810 14.318,16.015 12.662,15.998 ZM14.735,5.593 C14.682,4.043 13.421,3.322 12.084,3.294 C10.213,3.256 7.690,3.243 5.870,3.286 C4.849,3.342 4.300,3.704 3.792,4.433 C3.259,5.199 3.380,10.829 3.434,12.467 C3.508,13.632 4.569,14.751 5.684,14.714 C7.884,14.741 10.917,14.789 12.505,14.720 C13.776,14.734 14.782,13.387 14.772,12.058 C14.791,9.704 14.721,6.944 14.735,5.593 ZM13.142,6.020 C12.562,6.068 12.349,6.020 12.096,5.631 C11.965,5.379 11.948,5.083 12.056,4.798 C12.221,4.486 12.331,4.425 12.758,4.365 C13.248,4.372 13.391,4.503 13.561,4.805 C13.675,5.077 13.696,5.291 13.563,5.601 C13.379,5.924 13.428,5.886 13.142,6.020 ZM9.765,12.635 C7.106,13.215 4.764,10.633 5.610,7.961 C6.083,6.467 7.089,5.590 8.480,5.443 C13.718,5.075 13.849,11.745 9.765,12.635 ZM8.680,6.662 C5.533,7.637 6.546,11.563 9.333,11.400 C12.135,10.967 12.136,6.344 8.680,6.662 Z"/>
</svg>