<svg 
 xmlns="http://www.w3.org/2000/svg"
 xmlns:xlink="http://www.w3.org/1999/xlink"
 width="20px" height="15px">
<path fill-rule="evenodd"  fill="rgb(255, 126, 0)"
 d="M2.000,-0.000 L18.000,-0.000 C19.104,-0.000 20.000,0.895 20.000,2.000 L20.000,13.000 C20.000,14.105 19.104,15.000 18.000,15.000 L2.000,15.000 C0.895,15.000 -0.000,14.105 -0.000,13.000 L-0.000,2.000 C-0.000,0.895 0.895,-0.000 2.000,-0.000 Z"/>
<path fill-rule="evenodd"  fill="rgb(255, 255, 255)"
 d="M12.695,7.367 L17.769,2.987 C18.005,2.780 18.026,2.429 17.812,2.198 C17.597,1.970 17.232,1.949 16.992,2.156 L9.996,8.202 L8.631,7.028 C8.627,7.024 8.622,7.020 8.622,7.016 C8.592,6.987 8.562,6.962 8.528,6.937 L2.974,2.152 C2.733,1.945 2.369,1.966 2.154,2.198 C1.939,2.429 1.961,2.780 2.201,2.987 L7.335,7.404 L2.223,12.011 C1.991,12.222 1.978,12.574 2.197,12.801 C2.313,12.917 2.467,12.978 2.622,12.978 C2.763,12.978 2.905,12.929 3.017,12.830 L8.206,8.156 L9.614,9.367 C9.725,9.462 9.863,9.508 10.000,9.508 C10.137,9.508 10.279,9.458 10.386,9.363 L11.833,8.115 L16.992,12.834 C17.103,12.937 17.249,12.987 17.391,12.987 C17.546,12.987 17.696,12.929 17.812,12.813 C18.031,12.590 18.022,12.235 17.790,12.024 L12.695,7.367 Z"/>
</svg>