<svg 
 xmlns="http://www.w3.org/2000/svg"
 xmlns:xlink="http://www.w3.org/1999/xlink"
 width="42px" height="48px">
<path fill-rule="evenodd"  fill="rgb(116, 189, 85)"
 d="M20.187,-0.001 C27.511,-0.101 30.539,4.327 30.539,11.558 C30.539,13.416 30.620,15.332 30.169,16.792 C29.033,20.466 26.233,22.872 22.035,23.552 C16.793,24.403 12.878,20.210 11.831,16.792 C11.383,15.329 11.461,13.418 11.461,11.558 C11.461,9.838 11.413,8.110 11.831,6.759 C12.727,3.862 14.835,1.645 17.599,0.580 C18.461,0.387 19.324,0.193 20.187,-0.001 ZM13.679,25.078 C14.387,25.204 18.734,28.805 19.817,29.513 C20.186,29.780 20.556,30.047 20.926,30.313 C21.520,30.400 22.513,29.346 22.922,29.077 C24.756,27.873 26.272,26.144 28.099,25.078 C32.344,25.768 37.158,29.546 39.412,32.349 C40.232,33.368 41.735,34.600 42.000,36.056 C37.997,43.482 26.603,50.646 14.345,47.034 C10.914,46.022 8.189,44.424 5.694,42.526 C4.099,41.314 0.348,37.989 -0.000,35.838 C2.318,32.082 5.300,29.196 9.169,26.969 C10.672,26.339 12.176,25.709 13.679,25.078 Z"/>
<path fill-rule="evenodd"  fill="rgb(245, 212, 17)"
 d="M27.433,42.308 L27.433,39.036 L24.106,38.891 L24.032,35.984 L27.433,35.911 L27.507,32.567 L30.465,32.567 L30.539,35.911 L33.866,35.911 L33.940,38.891 L30.539,38.891 L30.465,42.308 L27.433,42.308 Z"/>
</svg>