<svg 
 xmlns="http://www.w3.org/2000/svg"
 xmlns:xlink="http://www.w3.org/1999/xlink"
 width="44px" height="44px">
<path fill-rule="evenodd"  fill="rgb(245, 212, 17)"
 d="M5.781,21.094 C8.940,21.094 11.500,23.661 11.500,26.828 C11.500,29.995 8.940,32.562 5.781,32.562 C2.623,32.562 0.062,29.995 0.062,26.828 C0.062,23.661 2.623,21.094 5.781,21.094 Z"/>
<path fill-rule="evenodd"  fill="rgb(224, 193, 14)"
 d="M5.185,21.100 C13.357,20.870 13.535,31.540 6.451,32.568 C2.616,33.124 -0.864,29.182 0.191,25.390 C0.787,22.852 3.243,21.243 5.185,21.100 ZM5.255,22.858 C3.582,23.015 2.358,24.009 1.879,25.882 C1.274,28.900 3.574,31.294 6.346,30.797 C11.295,29.909 10.898,22.723 5.255,22.858 Z"/>
<path fill-rule="evenodd"  fill="rgb(116, 189, 85)"
 d="M39.078,17.594 C36.981,17.594 35.281,15.894 35.281,13.797 C35.281,11.700 36.981,10.000 39.078,10.000 C41.175,10.000 42.875,11.700 42.875,13.797 C42.875,15.894 41.175,17.594 39.078,17.594 ZM26.812,28.500 C23.223,28.500 20.313,25.583 20.313,21.984 C20.313,18.386 23.223,15.469 26.812,15.469 C30.402,15.469 33.312,18.386 33.312,21.984 C33.312,25.583 30.402,28.500 26.812,28.500 ZM26.812,10.281 C24.224,10.281 22.125,8.183 22.125,5.594 C22.125,3.005 24.224,0.906 26.812,0.906 C29.401,0.906 31.500,3.005 31.500,5.594 C31.500,8.183 29.401,10.281 26.812,10.281 ZM36.094,33.750 C38.631,33.750 40.688,35.814 40.688,38.359 C40.688,40.905 38.631,42.969 36.094,42.969 C33.557,42.969 31.500,40.905 31.500,38.359 C31.500,35.814 33.557,33.750 36.094,33.750 Z"/>
<path fill-rule="evenodd"  fill="rgb(92, 171, 55)"
 d="M27.831,14.559 C30.161,14.604 31.521,16.005 32.639,17.022 C33.223,16.622 33.832,16.223 34.442,15.825 C31.896,9.763 39.979,6.310 43.092,10.901 C46.563,16.018 39.226,21.545 35.426,17.232 C34.817,17.654 34.207,18.075 33.598,18.497 C35.917,23.134 33.674,26.068 31.347,28.204 C32.261,29.798 33.176,31.393 34.090,32.987 C40.888,30.317 44.454,40.047 38.802,43.256 C35.009,45.409 29.928,42.659 30.226,37.887 C30.304,36.626 30.796,35.672 31.418,34.886 C31.769,34.487 32.121,34.088 32.472,33.690 C31.582,32.120 30.691,30.548 29.800,28.977 C26.670,30.402 22.740,28.933 21.220,27.008 C20.646,26.218 20.211,25.377 19.743,24.546 C18.920,24.744 17.382,25.444 16.399,25.126 C15.842,24.991 15.935,24.739 15.945,24.194 C16.009,23.377 18.178,23.127 19.461,22.858 C19.461,22.835 19.461,22.812 19.461,22.787 C19.224,21.934 19.488,20.784 19.672,20.115 C20.617,16.698 22.531,15.281 26.036,14.436 C26.072,13.433 26.072,12.378 26.072,11.323 C19.569,10.413 19.625,1.212 26.265,0.072 C30.156,-0.596 33.547,3.565 32.402,7.314 C31.753,9.439 30.149,10.852 27.831,11.323 C27.831,12.401 27.831,13.480 27.831,14.559 ZM26.287,1.791 C24.962,1.998 23.582,2.813 23.119,4.641 C22.382,7.544 24.878,10.441 27.971,9.565 C32.330,8.329 32.069,1.535 26.287,1.791 ZM38.661,10.479 C37.455,10.586 36.436,11.241 35.919,12.519 C35.018,14.742 36.963,17.309 39.259,17.039 C43.681,16.518 43.214,10.416 38.661,10.479 ZM26.524,16.164 C24.427,16.449 22.161,17.390 21.290,20.467 C20.208,24.289 23.692,28.437 27.338,27.852 C34.741,26.663 34.416,16.108 26.524,16.164 ZM23.611,21.170 C23.822,21.194 24.033,21.217 24.244,21.240 C25.063,21.643 24.856,23.162 25.580,23.702 C26.561,24.433 27.627,23.571 28.604,23.913 C28.877,24.034 28.973,24.135 29.097,24.406 C29.097,24.617 29.097,24.828 29.097,25.038 C26.331,27.038 22.371,24.616 23.189,21.522 C23.330,21.405 23.470,21.287 23.611,21.170 ZM29.706,21.167 C30.467,20.989 31.012,21.707 30.714,22.366 C30.594,22.639 30.492,22.735 30.222,22.858 C29.836,22.963 29.623,22.839 29.308,22.718 C29.169,22.450 28.995,22.046 29.167,21.663 C29.308,21.499 29.308,21.240 29.706,21.167 ZM13.554,24.194 C13.765,24.241 13.976,24.289 14.187,24.336 C15.263,25.374 13.581,26.606 12.991,25.531 C12.921,25.414 12.850,25.297 12.780,25.179 C12.830,24.770 12.904,24.570 13.202,24.406 C13.319,24.336 13.437,24.265 13.554,24.194 ZM35.286,34.394 C33.740,34.622 32.507,35.634 32.121,37.348 C31.372,40.130 33.816,42.803 36.692,42.201 C41.294,41.238 40.993,34.102 35.286,34.394 Z"/>
</svg>