<svg 
 xmlns="http://www.w3.org/2000/svg"
 xmlns:xlink="http://www.w3.org/1999/xlink"
 width="59px" height="36px">
<path fill-rule="evenodd"  fill="rgb(92, 171, 55)"
 d="M14.761,6.500 C19.000,6.317 21.392,7.893 24.405,9.065 C27.887,10.371 31.371,11.677 34.853,12.983 C36.809,13.743 40.452,14.337 39.675,17.400 C39.341,18.718 37.844,20.243 35.876,19.681 C31.931,18.351 27.985,17.021 24.040,15.691 C20.979,15.002 19.150,18.409 20.978,20.434 C21.939,21.499 25.707,22.387 27.306,22.958 C29.249,23.651 35.340,26.182 37.430,26.076 C38.952,26.000 40.199,25.656 41.558,25.026 C42.643,24.879 43.656,24.348 44.622,23.863 C44.789,23.291 45.009,22.840 45.228,22.388 C46.155,20.608 47.565,16.469 49.392,15.762 C51.618,14.902 53.925,16.787 53.411,19.111 C53.167,19.728 52.924,20.346 52.680,20.963 C53.510,20.642 54.674,20.190 55.979,20.476 C58.778,21.089 60.071,25.101 57.388,26.706 C55.285,27.963 52.604,28.819 50.311,29.679 C47.035,30.954 43.779,32.218 40.529,33.629 C38.778,34.394 37.076,35.399 35.048,35.810 C32.229,36.380 29.795,34.864 27.682,34.323 C23.392,32.916 19.122,31.531 14.836,30.246 C12.097,29.383 9.580,27.838 6.432,29.442 C4.800,25.714 3.168,21.984 1.536,18.256 C1.248,17.665 0.288,15.249 0.000,14.591 C1.390,13.696 2.706,12.841 4.021,11.986 C6.319,10.494 8.587,8.533 11.181,7.427 C12.262,6.965 13.342,6.737 14.761,6.500 Z"/>
<path fill-rule="evenodd"  fill="rgb(248, 212, 12)"
 d="M26.816,0.017 C30.408,-0.206 32.490,1.742 33.319,4.077 C33.513,4.909 33.708,5.740 33.903,6.571 C35.034,-2.474 45.141,-1.448 47.363,5.371 C49.968,13.365 42.839,18.849 38.657,21.648 C37.272,22.576 35.341,23.763 33.757,24.454 C32.152,23.498 30.560,22.608 28.960,21.530 C23.621,18.219 16.300,10.143 22.015,2.672 C23.285,1.012 24.862,0.474 26.816,0.017 Z"/>
<path fill-rule="evenodd"  fill="rgb(119, 189, 86)"
 d="M19.656,7.141 C24.916,9.112 30.177,11.084 35.437,13.055 C37.370,13.808 40.677,14.438 39.748,17.615 C39.379,18.876 37.979,20.329 35.876,19.823 C31.858,18.470 27.839,17.116 23.821,15.762 C20.822,15.122 19.330,19.092 21.409,20.678 C22.313,21.368 23.685,21.522 24.843,21.961 C27.766,22.958 30.689,23.956 33.611,24.953 C34.835,25.416 36.375,26.238 38.141,25.879 C43.850,24.720 49.162,21.464 54.580,20.321 C57.732,19.658 59.944,23.023 58.598,25.594 C57.504,27.683 52.249,29.003 49.831,30.012 C46.275,31.461 42.719,32.909 39.164,34.358 C37.348,35.114 35.094,36.443 32.223,35.854 C26.500,34.049 20.776,32.244 15.053,30.439 C12.373,29.522 9.412,28.095 6.432,29.442 C4.897,25.951 3.363,22.459 1.829,18.969 C3.047,14.546 10.787,10.376 15.126,8.638 C16.636,8.139 18.146,7.640 19.656,7.141 Z"/>
</svg>