<svg 
 xmlns="http://www.w3.org/2000/svg"
 xmlns:xlink="http://www.w3.org/1999/xlink"
 width="46px" height="46px">
<path fill-rule="evenodd"  fill="rgb(117, 189, 87)"
 d="M41.989,45.900 C36.273,45.900 30.556,45.900 24.840,45.900 C23.302,45.900 19.336,46.235 18.488,45.582 C17.598,44.897 17.242,40.330 16.901,38.858 C15.630,32.430 14.360,26.001 13.090,19.572 C12.340,15.867 11.215,13.066 12.582,12.213 C13.312,11.697 19.150,11.960 20.838,11.960 C26.152,11.982 31.467,12.003 36.781,12.023 C41.310,12.039 44.359,11.498 45.672,14.878 C46.182,16.333 45.927,21.334 45.927,23.760 C45.927,28.158 45.927,32.557 45.927,36.954 C45.927,38.954 46.227,41.675 45.609,43.172 C44.907,44.871 43.637,45.525 41.989,45.900 Z"/>
<path fill-rule="evenodd"  fill="rgb(247, 212, 17)"
 d="M37.040,25.479 C38.952,25.674 42.207,25.027 42.823,26.114 C43.417,27.513 42.547,28.252 42.143,28.441 C41.913,28.564 40.555,28.645 39.899,28.589 C39.847,30.256 38.701,32.197 37.675,32.970 C37.972,33.288 38.268,33.605 38.565,33.923 C39.157,34.456 39.896,35.126 40.020,35.765 C40.135,36.483 39.879,37.327 38.883,37.541 C37.316,37.878 36.311,35.948 35.515,35.319 C34.708,35.916 33.093,38.527 31.575,37.223 C31.204,36.906 30.999,36.665 31.003,35.954 C31.977,35.023 32.952,34.092 33.926,33.161 C34.384,32.093 32.903,26.998 32.719,25.479 C33.142,25.479 33.566,25.479 33.990,25.479 C33.854,23.988 33.955,22.128 35.896,22.494 C37.182,22.738 37.221,23.982 37.040,25.479 ZM34.307,28.589 C34.434,29.364 34.987,30.277 35.515,30.684 C36.017,30.326 36.527,29.440 36.722,28.589 C35.917,28.589 35.112,28.589 34.307,28.589 Z"/>
<path fill-rule="evenodd"  fill="rgb(76, 143, 48)"
 d="M32.719,33.923 C32.846,33.923 32.973,33.923 33.100,33.923 C33.100,33.944 33.100,33.965 33.100,33.985 C33.036,34.070 32.973,34.155 32.909,34.240 C29.542,37.308 26.173,40.377 22.805,43.445 C22.059,44.047 20.410,46.461 18.992,45.922 C17.855,45.489 17.953,43.961 17.658,42.684 C17.065,39.806 16.471,36.927 15.878,34.049 C15.878,34.028 15.878,34.007 15.878,33.985 C21.491,33.965 27.106,33.944 32.719,33.923 Z"/>
<path fill-rule="evenodd"  fill="rgb(91, 170, 58)"
 d="M3.995,0.084 C9.714,0.084 15.434,0.084 21.153,0.084 C22.691,0.084 26.660,-0.251 27.508,0.402 C28.398,1.087 28.755,5.658 29.096,7.131 C30.367,13.564 31.638,19.998 32.909,26.431 C33.659,30.140 34.784,32.943 33.418,33.796 C32.687,34.313 26.845,34.049 25.156,34.049 C19.840,34.028 14.522,34.007 9.206,33.985 C4.674,33.971 1.623,34.511 0.309,31.129 C-0.201,29.672 0.055,24.669 0.055,22.242 C0.055,17.839 0.055,13.437 0.055,9.035 C0.055,7.035 -0.245,4.312 0.373,2.813 C1.075,1.113 2.346,0.460 3.995,0.084 Z"/>
<path fill-rule="evenodd"  fill="rgb(247, 212, 17)"
 d="M14.229,11.047 C16.032,10.893 19.594,11.638 18.039,13.797 C17.077,15.134 16.001,13.897 14.671,14.051 C13.321,14.208 12.313,15.195 12.084,16.518 C11.460,20.112 16.275,20.970 17.594,18.559 C16.049,18.637 14.440,18.309 15.243,16.210 C15.667,15.125 20.013,14.994 20.772,16.146 C21.307,16.886 20.914,18.375 20.645,19.066 C19.720,21.437 18.246,22.796 15.377,23.088 C11.268,23.507 7.990,19.097 9.270,15.257 C10.226,12.387 12.839,11.300 14.229,11.047 Z"/>
</svg>