<svg 
 xmlns="http://www.w3.org/2000/svg"
 xmlns:xlink="http://www.w3.org/1999/xlink"
 width="42px" height="47px">
<path fill-rule="evenodd"  fill="rgb(116, 189, 85)"
 d="M42.000,5.672 C41.966,8.300 41.402,10.477 40.584,12.357 C38.917,16.192 34.875,19.534 38.494,24.985 C39.134,25.950 40.141,26.991 41.056,27.687 C37.968,34.786 33.806,40.174 27.573,44.097 C25.801,45.212 24.070,46.494 21.640,46.933 C18.949,47.420 15.789,45.025 14.292,44.029 C8.263,40.018 3.840,34.845 0.944,27.687 C1.855,27.008 2.877,25.940 3.506,24.985 C7.144,19.462 2.964,15.999 1.281,12.087 C0.503,10.279 0.032,8.182 -0.000,5.672 C1.802,5.699 2.820,6.896 4.584,7.224 C9.928,8.219 13.122,3.623 14.225,-0.001 C18.741,-0.001 23.259,-0.001 27.775,-0.001 C28.754,3.646 32.158,8.209 37.416,7.224 C39.179,6.895 40.190,5.722 42.000,5.672 ZM20.157,16.206 C19.371,16.206 18.584,16.206 17.798,16.206 C17.811,17.554 18.063,18.876 17.850,20.246 C16.405,20.258 15.078,20.258 13.753,20.258 C13.753,22.397 13.753,24.535 13.753,26.674 C15.107,26.683 16.527,26.548 17.843,26.643 C17.798,28.070 17.798,29.398 17.798,30.726 C18.607,30.726 19.416,30.726 20.225,30.726 C21.100,30.693 20.744,30.760 21.775,30.726 C22.584,30.726 23.393,30.726 24.202,30.726 C24.220,29.372 24.145,27.960 24.190,26.624 C25.595,26.674 26.921,26.674 28.247,26.674 C28.247,24.535 28.247,22.397 28.247,20.258 C26.899,20.258 25.550,20.258 24.202,20.258 C24.202,18.908 24.202,17.557 24.202,16.206 C23.395,16.198 22.608,16.370 21.790,16.275 C20.934,16.287 21.156,16.282 20.157,16.206 Z"/>
<path fill-rule="evenodd"  fill="rgb(92, 171, 55)"
 d="M21.775,1.619 C21.775,4.320 21.775,7.022 21.775,9.724 C21.236,9.701 20.697,9.678 20.157,9.656 C20.157,7.518 20.157,5.379 20.157,3.240 C18.877,3.240 17.595,3.240 16.315,3.240 C15.098,7.658 10.018,10.975 4.112,10.399 C5.633,13.814 9.097,16.767 7.955,22.285 C7.582,24.085 6.945,25.641 6.067,26.944 C5.640,27.484 5.213,28.025 4.786,28.565 C4.839,30.007 8.807,34.727 9.708,35.926 C9.326,36.286 8.944,36.646 8.562,37.006 C8.449,36.916 8.337,36.826 8.225,36.736 C7.753,36.151 7.281,35.565 6.809,34.980 C5.628,33.372 3.232,30.189 2.899,28.025 C5.263,26.262 7.450,21.913 6.135,17.625 C5.514,15.602 4.271,14.213 3.303,12.560 C2.551,11.275 2.286,9.687 1.753,8.170 C2.854,8.418 3.955,8.665 5.056,8.913 C8.670,9.478 11.858,7.210 13.281,5.402 C13.641,4.944 15.125,1.720 15.303,1.619 C17.460,1.619 19.618,1.619 21.775,1.619 ZM23.393,1.619 C24.494,1.619 25.596,1.619 26.697,1.619 C27.588,4.488 29.903,7.656 32.966,8.305 C32.786,8.823 32.607,9.341 32.427,9.859 C29.587,8.734 26.374,6.432 25.685,3.240 C24.921,3.240 24.157,3.240 23.393,3.240 C23.393,2.700 23.393,2.160 23.393,1.619 ZM21.775,38.019 C21.759,39.058 21.713,42.851 21.910,43.557 C27.242,41.421 31.637,37.326 34.652,32.819 C34.917,32.422 37.328,28.698 37.213,28.429 C36.809,27.980 36.404,27.529 36.000,27.079 C34.710,25.258 33.345,22.080 33.977,18.705 C34.292,17.025 34.827,15.503 35.595,14.248 C36.329,13.050 37.490,11.964 37.820,10.399 C36.751,10.553 35.313,10.627 34.315,10.331 C34.315,10.309 34.315,10.286 34.315,10.264 C34.404,9.769 34.494,9.273 34.584,8.778 C36.754,8.950 38.450,8.603 40.180,8.170 C39.529,13.829 33.322,16.936 36.202,24.108 C36.884,25.805 38.101,26.772 39.101,28.092 C38.748,29.412 37.921,30.595 37.281,31.672 C34.625,36.139 31.377,39.638 27.101,42.476 C25.552,43.504 23.716,44.924 21.640,45.312 C18.755,45.853 13.586,41.571 12.000,40.315 C11.236,39.641 10.472,38.964 9.708,38.289 C10.067,37.884 10.427,37.479 10.786,37.074 C11.213,37.502 11.640,37.929 12.067,38.357 C12.629,38.829 13.191,39.303 13.753,39.775 C15.559,41.145 17.806,42.869 20.157,43.557 C20.180,41.711 20.202,39.865 20.225,38.019 C20.741,38.019 21.258,38.019 21.775,38.019 ZM20.166,11.305 C20.823,10.772 21.352,11.025 21.775,11.344 C21.798,12.987 21.820,14.631 21.843,16.274 C21.281,16.274 20.719,16.274 20.157,16.274 C20.157,14.631 20.157,12.987 20.166,11.305 ZM20.157,30.726 C20.719,30.726 21.281,30.726 21.843,30.726 C21.820,32.616 21.798,34.508 21.775,36.399 C21.236,36.399 20.697,36.399 20.157,36.399 C20.157,34.508 20.157,32.616 20.157,30.726 Z"/>
<path fill-rule="evenodd"  fill="rgb(245, 212, 17)"
 d="M24.202,16.206 C24.202,17.557 24.202,18.908 24.202,20.258 C25.550,20.258 26.899,20.258 28.247,20.258 C28.247,22.419 28.247,24.580 28.247,26.741 C26.899,26.741 25.550,26.741 24.202,26.741 C24.202,28.070 24.202,29.398 24.202,30.726 C22.068,30.726 19.932,30.726 17.798,30.726 C17.798,29.398 17.798,28.070 17.798,26.741 C16.450,26.741 15.101,26.741 13.753,26.741 C13.753,24.580 13.753,22.419 13.753,20.258 C15.101,20.236 16.450,20.213 17.798,20.191 C17.798,18.863 17.798,17.535 17.798,16.206 C19.932,16.206 22.068,16.206 24.202,16.206 Z"/>
</svg>