<svg 
 xmlns="http://www.w3.org/2000/svg"
 xmlns:xlink="http://www.w3.org/1999/xlink"
 width="49px" height="47px">
<path fill-rule="evenodd"  fill="rgb(118, 187, 86)"
 d="M5.427,25.407 C5.744,25.407 6.062,25.407 6.380,25.407 C6.810,21.060 9.367,18.229 12.289,16.305 C12.798,15.970 14.485,14.506 15.339,14.788 C16.035,15.018 17.519,16.772 18.654,17.207 C23.692,19.132 28.218,16.775 30.208,13.651 C31.130,13.841 32.051,14.030 32.972,14.220 C33.713,13.690 39.668,10.855 40.979,11.661 C42.474,12.578 41.359,17.197 41.169,18.675 C43.367,20.306 43.546,22.602 44.784,24.460 C45.912,26.151 49.043,23.865 49.000,28.869 C49.001,29.886 48.826,30.716 48.794,31.664 C48.091,33.342 45.280,32.967 43.838,33.939 C43.330,34.666 42.821,35.393 42.313,36.120 C40.963,37.850 38.945,39.284 36.880,40.291 C36.499,42.313 36.118,44.336 35.744,46.380 C35.113,46.999 34.210,46.827 32.953,46.901 C29.164,47.125 30.433,45.337 29.636,42.661 C28.480,42.933 21.485,43.040 20.868,42.946 C20.526,45.872 20.947,47.068 17.381,46.870 C16.255,46.824 15.541,46.857 14.958,46.454 C14.545,44.495 14.132,42.535 13.719,40.576 C8.859,38.191 5.871,34.020 6.151,26.934 C5.808,26.892 5.427,26.860 5.046,26.829 C4.653,28.017 2.387,30.389 0.436,29.592 C-0.098,29.374 -0.224,28.381 0.519,28.263 C2.151,28.194 2.759,27.792 3.521,26.639 C3.521,26.608 3.521,26.576 3.518,26.550 C1.303,26.568 -0.852,23.985 1.519,22.373 C3.593,20.963 5.459,23.530 5.427,25.407 ZM2.482,23.497 C2.134,23.599 1.911,23.979 2.054,24.422 C2.197,24.865 3.084,25.080 3.997,25.122 C3.729,24.304 3.491,24.012 2.949,23.511 C2.806,23.489 2.726,23.384 2.482,23.497 Z"/>
<path fill-rule="evenodd"  fill="rgb(95, 170, 57)"
 d="M39.859,11.525 C42.047,10.978 41.896,14.564 41.551,16.684 C40.939,19.830 39.643,23.531 35.451,21.804 C33.486,20.995 30.961,16.907 33.068,14.125 C34.030,12.854 37.970,12.178 39.859,11.525 ZM39.740,12.608 C37.654,13.545 35.419,13.821 33.577,15.028 C33.236,17.358 33.569,18.843 34.593,20.192 C34.825,20.315 35.024,20.364 35.069,20.098 C35.942,16.652 38.537,15.108 40.407,12.703 C40.407,12.671 40.407,12.640 40.407,12.608 C40.248,12.466 39.962,12.608 39.740,12.608 ZM18.008,17.063 C18.961,17.380 19.915,17.695 20.868,18.012 C20.868,18.043 20.868,18.075 20.868,18.107 C19.035,18.076 17.354,18.509 16.007,19.055 C15.690,18.818 15.550,18.744 15.339,18.391 C15.494,18.088 15.516,17.994 15.816,17.822 C16.547,17.570 17.278,17.317 18.008,17.063 ZM26.491,17.063 C27.412,17.380 28.334,17.695 29.255,18.012 C29.322,18.627 29.193,18.778 28.683,19.055 C27.095,18.676 25.506,18.296 23.918,17.917 C24.855,17.877 25.914,17.521 26.491,17.063 ZM5.427,25.407 C5.713,25.438 5.999,25.470 6.285,25.501 C6.253,25.975 6.221,26.449 6.189,26.923 C5.808,26.892 5.427,26.860 5.046,26.829 C4.653,28.017 2.387,30.389 0.471,29.579 C-0.028,29.347 -0.043,29.027 0.089,28.441 C1.513,27.845 2.677,27.782 3.521,26.639 C3.521,26.608 3.521,26.576 3.521,26.545 C1.466,26.295 -0.821,23.934 1.519,22.373 C3.605,20.981 5.459,23.530 5.427,25.407 ZM2.472,23.511 C2.245,23.825 2.111,23.894 1.996,24.364 C2.570,24.754 3.061,25.057 3.997,25.122 C3.729,24.304 3.491,24.012 2.949,23.511 C2.790,23.511 2.631,23.511 2.472,23.511 ZM37.547,24.838 C37.834,24.849 38.066,24.930 38.215,25.122 C38.258,25.796 38.140,25.901 38.882,26.449 C39.223,26.522 39.512,26.495 39.748,26.362 C40.433,26.199 40.353,25.467 40.597,24.933 C40.760,24.792 40.919,24.766 41.200,24.836 C41.534,24.958 41.520,25.074 41.551,25.217 C41.753,29.161 36.484,27.891 37.071,25.407 C37.095,25.066 37.340,24.973 37.547,24.838 ZM46.030,25.122 C48.709,25.604 49.039,26.597 48.941,29.483 C48.914,30.282 49.008,31.328 48.699,31.854 C47.835,33.323 45.242,32.989 43.838,33.939 C43.330,34.666 42.821,35.393 42.313,36.120 C40.968,37.843 38.946,39.298 36.880,40.291 C36.499,42.313 36.118,44.336 35.736,46.359 C35.061,46.841 34.225,46.833 32.972,46.833 C29.276,46.833 30.449,45.280 29.636,42.661 C28.395,42.664 21.385,42.725 20.868,42.946 C20.583,45.784 20.780,46.834 17.436,46.833 C16.367,46.833 15.553,46.849 14.958,46.454 C14.545,44.495 14.132,42.535 13.719,40.576 C9.753,38.626 7.371,35.494 6.380,30.526 C6.197,29.607 5.936,27.956 6.285,27.113 C6.435,30.884 8.760,34.094 11.050,35.836 C11.940,36.404 12.830,36.973 13.719,37.541 C14.699,39.203 14.153,41.925 15.053,43.515 C16.288,43.871 19.260,43.934 20.200,43.325 C20.446,42.224 20.607,40.509 21.154,39.628 C21.185,39.628 21.217,39.628 21.249,39.628 C22.449,39.681 29.016,39.497 29.548,39.582 C30.135,40.932 30.024,42.527 30.590,43.515 C30.841,43.820 34.341,44.048 34.879,43.325 C35.666,42.266 35.346,38.765 36.404,37.258 C37.547,36.183 38.691,35.108 39.835,34.034 C40.248,33.528 40.661,33.023 41.074,32.517 C44.286,30.119 46.077,31.104 46.030,25.122 Z"/>
<path fill-rule="evenodd"  fill="rgb(248, 212, 12)"
 d="M22.437,-0.000 C27.460,-0.000 31.531,4.050 31.531,9.047 C31.531,14.043 27.460,18.094 22.437,18.094 C17.415,18.094 13.344,14.043 13.344,9.047 C13.344,4.050 17.415,-0.000 22.437,-0.000 Z"/>
<path fill-rule="evenodd"  fill="rgb(189, 158, 0)"
 d="M22.535,3.722 C22.929,3.733 22.949,3.876 22.971,4.463 C23.753,4.560 24.899,4.692 24.981,5.118 C25.054,5.518 24.969,5.896 24.639,5.948 C24.329,5.942 23.543,5.724 22.965,5.687 C22.965,6.509 22.965,7.331 22.965,8.152 C24.619,8.554 26.073,10.613 24.775,12.418 C24.318,13.055 23.035,13.352 22.903,13.432 C22.911,13.798 22.943,13.967 22.768,14.050 C22.547,14.183 22.271,14.125 22.053,13.987 C21.986,13.869 21.999,13.601 21.971,13.411 C20.764,13.295 20.194,12.940 19.533,12.229 C19.396,12.026 19.370,11.700 19.619,11.382 C19.775,11.271 19.866,11.135 20.296,11.186 C20.790,11.654 21.263,11.998 22.021,12.122 C22.032,11.158 22.040,10.174 22.011,9.195 C20.597,8.950 18.779,7.263 20.010,5.497 C20.430,4.894 21.199,4.513 22.098,4.408 C22.137,4.144 22.017,3.773 22.535,3.722 ZM21.916,5.687 C21.430,5.793 21.233,5.953 21.058,6.351 C21.018,6.619 21.045,6.860 21.154,7.109 C21.378,7.611 21.723,7.646 22.128,7.857 C22.139,7.124 22.105,6.442 22.121,5.697 C22.107,5.687 22.011,5.687 21.916,5.687 ZM22.869,9.669 C22.869,10.459 22.869,11.249 22.867,12.114 C23.258,12.037 23.436,11.912 23.632,11.565 C24.047,11.000 23.810,10.308 23.450,9.861 C23.226,9.683 23.050,9.687 22.869,9.669 Z"/>
</svg>