<svg 
 xmlns="http://www.w3.org/2000/svg"
 xmlns:xlink="http://www.w3.org/1999/xlink"
 width="44px" height="48px">
<path fill-rule="evenodd"  fill="rgb(116, 189, 85)"
 d="M6.390,3.064 C6.390,5.871 6.390,8.679 6.390,11.486 C1.994,11.154 0.876,2.959 6.390,3.064 ZM37.609,3.064 C37.609,5.871 37.609,8.679 37.609,11.486 C33.100,11.280 32.027,2.941 37.609,3.064 ZM5.623,36.292 C6.007,38.700 6.211,43.905 4.550,44.561 C3.485,44.981 2.357,44.331 2.018,43.565 C1.534,42.472 1.865,40.211 1.865,38.818 C1.916,35.093 1.967,31.366 2.018,27.640 C-0.237,26.625 -0.093,23.046 0.101,19.831 C0.183,18.458 -0.091,16.837 0.254,15.696 C0.564,14.669 1.368,13.648 2.172,13.093 C3.124,12.436 3.638,12.363 4.809,12.377 C4.801,12.524 5.589,35.247 5.623,36.292 ZM35.995,12.391 C36.254,20.366 36.510,28.254 36.766,36.139 C36.770,38.528 37.734,43.472 35.922,44.408 C34.729,45.024 33.402,44.211 33.084,43.259 C33.109,38.027 33.135,32.794 33.161,27.564 C32.393,27.124 31.699,26.231 31.396,25.343 C30.833,23.692 31.063,16.894 31.473,15.313 C31.768,14.176 33.075,12.633 35.297,12.410 C35.829,12.329 35.708,12.377 35.995,12.391 Z"/>
<path fill-rule="evenodd"  fill="rgb(248, 212, 12)"
 d="M21.962,0.001 C21.962,3.217 21.962,6.433 21.962,9.648 C16.942,9.402 15.444,-0.119 21.962,0.001 ZM20.044,10.720 C20.376,19.830 20.709,28.942 21.041,38.053 C21.111,41.238 22.178,46.806 19.660,47.777 C16.872,48.851 16.669,45.796 16.669,43.336 C16.694,38.309 16.720,33.280 16.746,28.253 C14.509,26.729 14.521,24.190 14.521,20.366 C14.521,15.036 14.805,10.699 20.044,10.720 Z"/>
<path fill-rule="evenodd"  fill="rgb(224, 193, 14)"
 d="M21.885,0.001 C28.483,-0.177 26.881,9.595 21.885,9.648 C21.885,6.433 21.885,3.217 21.885,0.001 ZM22.499,34.149 C22.115,34.149 21.731,34.149 21.348,34.149 C21.479,35.641 21.619,44.392 21.118,45.633 C20.760,33.971 20.402,22.305 20.044,10.644 C24.720,10.568 27.710,10.855 29.019,14.089 C29.720,15.823 29.651,23.931 29.019,25.727 C28.655,26.758 27.886,27.775 27.024,28.329 C27.024,33.101 27.024,37.874 27.024,42.647 C27.024,45.026 27.207,47.409 25.260,47.853 C23.934,48.155 22.890,47.297 22.575,46.551 C22.244,45.767 22.422,44.297 22.422,43.259 C22.447,40.222 22.473,37.185 22.499,34.149 Z"/>
<path fill-rule="evenodd"  fill="rgb(92, 171, 55)"
 d="M6.314,3.064 C12.143,2.895 10.740,11.380 6.314,11.486 C6.314,8.679 6.314,5.871 6.314,3.064 ZM37.456,3.064 C43.336,2.887 41.878,11.452 37.456,11.486 C37.456,8.679 37.456,5.871 37.456,3.064 ZM38.070,32.770 C37.712,32.770 37.354,32.770 36.996,32.770 C36.996,35.398 36.996,38.027 36.996,40.656 C36.919,40.656 36.842,40.656 36.766,40.656 C36.766,39.916 36.766,39.175 36.766,38.436 C36.459,29.760 36.152,21.080 35.828,12.387 C37.197,12.376 38.605,12.402 39.987,12.405 C41.880,12.674 43.249,13.910 43.847,15.535 C44.051,16.945 44.002,18.910 43.976,21.822 C43.758,23.265 44.120,24.715 43.669,25.803 C43.299,26.695 42.538,27.178 41.982,27.870 C41.956,31.877 41.931,35.884 41.905,39.891 C41.707,42.237 42.368,44.366 40.217,44.714 C39.322,44.858 38.179,44.121 38.074,43.305 C37.709,40.472 38.027,35.024 38.070,32.770 ZM4.626,12.481 C8.101,12.248 10.853,12.361 12.218,14.526 C13.180,16.051 13.381,23.397 12.604,25.573 C12.238,26.596 11.500,27.160 10.839,27.870 C10.814,31.953 10.788,36.037 10.763,40.120 C10.763,42.248 11.024,44.301 9.305,44.714 C5.030,45.742 7.308,35.532 6.851,32.770 C6.518,32.795 6.186,32.821 5.853,32.846 C5.802,35.705 5.751,38.563 5.700,41.422 C5.675,41.422 5.649,41.422 5.623,41.422 C5.291,31.775 4.959,22.127 4.626,12.481 Z"/>
</svg>