<svg 
 xmlns="http://www.w3.org/2000/svg"
 xmlns:xlink="http://www.w3.org/1999/xlink"
 width="17px" height="17px">
<path fill-rule="evenodd"  fill="rgb(0, 192, 255)"
 d="M4.036,0.000 C4.395,0.000 4.754,0.000 5.113,0.000 C5.113,0.012 5.113,0.025 5.113,0.037 C5.700,0.081 6.176,0.283 6.619,0.475 C6.741,0.544 6.863,0.613 6.986,0.682 C7.034,0.712 7.094,0.773 7.155,0.785 C7.279,0.766 7.403,0.748 7.527,0.729 C7.710,0.710 7.894,0.691 8.077,0.673 C8.155,0.673 8.234,0.673 8.312,0.673 C8.472,0.671 8.632,0.670 8.792,0.668 C8.874,0.671 8.955,0.674 9.037,0.677 C9.244,0.699 9.451,0.721 9.658,0.743 C10.211,0.855 10.733,0.965 11.215,1.143 C13.579,2.016 15.304,3.912 16.060,6.402 C16.269,7.088 16.333,7.865 16.333,8.744 C16.333,9.027 16.311,9.285 16.267,9.548 C16.256,9.617 16.200,9.791 16.220,9.859 C16.248,9.952 16.341,10.042 16.389,10.122 C16.518,10.334 16.623,10.582 16.719,10.819 C16.813,11.051 16.872,11.316 16.926,11.576 C16.940,11.681 16.954,11.786 16.968,11.891 C16.979,11.891 16.990,11.891 17.001,11.891 C17.001,12.247 17.001,12.603 17.001,12.959 C16.988,12.959 16.976,12.959 16.963,12.959 C16.953,13.407 16.759,13.901 16.615,14.234 C16.144,15.323 15.278,16.208 14.169,16.656 C13.903,16.763 13.614,16.839 13.318,16.914 C13.197,16.932 13.076,16.949 12.955,16.967 C12.955,16.977 12.955,16.988 12.955,16.999 C12.599,16.999 12.243,16.999 11.887,16.999 C11.886,16.986 11.884,16.974 11.883,16.961 C11.716,16.960 11.537,16.912 11.398,16.877 C11.022,16.780 10.670,16.694 10.368,16.519 C10.256,16.455 10.136,16.394 10.025,16.327 C9.974,16.296 9.915,16.236 9.855,16.218 C9.738,16.236 9.620,16.253 9.502,16.270 C9.316,16.289 9.129,16.308 8.943,16.327 C8.883,16.327 8.823,16.327 8.764,16.327 C8.649,16.330 8.535,16.333 8.420,16.336 C8.295,16.333 8.170,16.330 8.044,16.327 C7.840,16.306 7.636,16.286 7.433,16.265 C6.887,16.170 6.366,16.060 5.908,15.884 C5.865,15.875 5.821,15.865 5.777,15.856 C3.242,14.838 1.443,12.922 0.804,10.010 C0.740,9.718 0.735,9.405 0.682,9.102 C0.679,9.020 0.676,8.939 0.673,8.857 C0.671,8.708 0.670,8.559 0.668,8.410 C0.670,8.282 0.671,8.153 0.673,8.024 C0.695,7.816 0.717,7.607 0.738,7.399 C0.753,7.316 0.767,7.233 0.781,7.150 C0.756,7.053 0.660,6.962 0.611,6.881 C0.538,6.761 0.462,6.619 0.409,6.491 C0.310,6.251 0.209,5.999 0.141,5.734 C0.090,5.535 0.075,5.332 0.033,5.118 C0.022,5.118 0.011,5.118 -0.000,5.118 C-0.000,4.759 -0.000,4.399 -0.000,4.041 C0.021,4.040 0.023,4.041 0.033,4.031 C0.045,3.939 0.058,3.846 0.070,3.753 C0.091,3.646 0.111,3.544 0.141,3.429 C0.208,3.170 0.310,2.917 0.409,2.681 C0.551,2.344 0.769,2.041 0.978,1.768 C1.669,0.869 2.644,0.235 4.036,0.037 C4.036,0.025 4.036,0.012 4.036,0.000 Z"/>
<path fill-rule="evenodd"  fill="rgb(255, 255, 255)"
 d="M8.486,3.918 C9.699,3.908 10.710,4.424 11.238,5.103 C11.498,5.438 11.837,5.915 11.431,6.360 C11.242,6.566 10.823,6.611 10.575,6.430 C10.414,6.312 10.340,6.107 10.222,5.945 C10.093,5.769 9.890,5.653 9.705,5.532 C9.428,5.350 8.618,5.164 8.124,5.268 C7.493,5.402 6.986,5.599 6.699,6.072 C6.655,6.144 6.598,6.233 6.576,6.327 C6.419,7.020 7.100,7.256 7.517,7.455 C8.183,7.774 8.990,7.910 9.709,8.180 C10.427,8.449 11.049,8.829 11.464,9.403 C11.734,9.775 11.855,10.429 11.695,11.007 C11.664,11.118 11.649,11.225 11.596,11.318 C11.486,11.505 11.400,11.689 11.276,11.858 C10.878,12.397 10.227,12.772 9.474,12.959 C9.294,13.003 9.068,13.038 8.867,13.072 C8.778,13.073 8.689,13.075 8.599,13.076 C8.521,13.078 8.442,13.079 8.364,13.081 C8.116,13.041 7.898,13.058 7.672,13.001 C6.832,12.789 6.141,12.436 5.701,11.825 C5.468,11.501 5.178,11.028 5.574,10.635 C5.783,10.428 6.155,10.391 6.421,10.569 C6.588,10.681 6.659,10.899 6.779,11.058 C6.907,11.229 7.117,11.367 7.306,11.477 C7.435,11.552 7.572,11.585 7.729,11.632 C8.647,11.909 9.489,11.677 10.053,11.223 C10.210,11.096 10.494,10.761 10.443,10.442 C10.348,9.851 9.814,9.688 9.333,9.483 C8.318,9.049 7.070,8.884 6.228,8.284 C5.897,8.047 5.552,7.730 5.386,7.333 C5.330,7.199 5.280,7.047 5.250,6.896 C5.176,6.523 5.253,6.077 5.363,5.809 C5.627,5.166 6.029,4.739 6.591,4.398 C6.901,4.210 7.291,4.082 7.691,3.993 C7.851,3.971 8.011,3.950 8.171,3.928 C8.276,3.925 8.381,3.921 8.486,3.918 Z"/>
</svg>