<svg 
 xmlns="http://www.w3.org/2000/svg"
 xmlns:xlink="http://www.w3.org/1999/xlink"
 width="18px" height="18px">
<path fill-rule="evenodd"  fill="rgb(151, 63, 220)"
 d="M8.189,0.028 C12.896,-0.018 16.126,0.650 17.436,3.898 C17.750,4.678 17.740,5.575 17.892,6.524 C18.027,7.363 18.031,8.476 17.892,9.316 C17.673,10.647 17.628,11.798 17.036,12.717 C15.300,15.414 12.203,15.964 7.704,15.758 C7.000,16.467 6.296,17.177 5.592,17.886 C5.277,18.077 4.761,17.978 4.565,17.748 C4.151,17.264 4.544,16.023 4.365,15.315 C3.745,15.217 3.254,14.864 2.824,14.569 C1.806,13.871 0.852,12.924 0.455,11.639 C0.205,10.830 0.230,9.997 0.084,9.068 C-0.022,8.391 -0.026,7.422 0.084,6.746 C0.302,5.395 0.303,4.187 0.883,3.235 C1.772,1.777 3.122,0.741 5.107,0.332 C5.801,0.249 6.496,0.166 7.190,0.083 C7.523,0.065 7.856,0.046 8.189,0.028 Z"/>
<path fill-rule="evenodd"  fill="rgb(255, 255, 255)"
 d="M8.788,3.456 C11.324,3.413 12.854,4.894 13.326,6.967 C13.412,7.345 13.509,7.919 13.412,8.293 C13.355,8.321 13.297,8.349 13.240,8.377 C12.793,8.274 12.974,7.805 12.898,7.354 C12.766,6.576 12.521,5.967 12.127,5.446 C11.660,4.829 10.896,4.331 10.044,4.092 C9.590,3.964 8.959,4.039 8.617,3.816 C8.617,3.612 8.653,3.591 8.731,3.483 C8.750,3.474 8.769,3.465 8.788,3.456 ZM5.735,3.953 C6.370,3.957 7.762,5.575 7.590,6.276 C7.482,6.714 6.910,6.765 6.791,7.160 C6.665,7.575 7.307,8.534 7.476,8.763 C7.747,9.134 9.105,10.374 9.844,10.174 C10.345,10.037 10.460,9.094 11.271,9.427 C11.538,9.611 11.804,9.796 12.070,9.980 C12.397,10.203 12.896,10.419 13.098,10.754 C13.435,11.315 12.590,12.100 12.299,12.302 C11.318,12.983 9.880,11.930 9.102,11.500 C7.275,10.491 6.019,9.088 5.050,7.243 C4.816,6.799 4.174,5.925 4.336,5.308 C4.524,4.594 5.161,4.305 5.735,3.953 ZM9.216,4.562 C10.726,4.802 11.575,5.235 12.070,6.441 C12.209,6.779 12.438,7.460 12.213,7.879 C12.137,7.888 12.061,7.898 11.985,7.907 C11.928,7.879 11.870,7.851 11.813,7.823 C11.804,7.648 11.794,7.473 11.785,7.299 C11.705,6.821 11.567,6.408 11.328,6.082 C10.998,5.631 10.453,5.294 9.816,5.142 C9.504,5.068 9.233,5.083 9.017,4.949 C9.009,4.678 9.060,4.664 9.216,4.562 ZM9.530,5.723 C10.318,5.725 11.518,6.514 11.129,7.409 C11.100,7.455 11.071,7.501 11.043,7.547 C10.967,7.538 10.891,7.529 10.815,7.519 C10.767,7.492 10.719,7.464 10.672,7.436 C10.488,5.962 10.015,6.682 9.331,6.054 C9.331,6.009 9.331,5.962 9.331,5.916 C9.399,5.831 9.447,5.792 9.530,5.723 Z"/>
</svg>