<svg 
 xmlns="http://www.w3.org/2000/svg"
 xmlns:xlink="http://www.w3.org/1999/xlink"
 width="18px" height="18px">
<path fill-rule="evenodd"  fill="rgb(59, 108, 189)"
 d="M8.898,17.958 C7.320,17.958 5.741,17.958 4.163,17.958 C3.390,17.958 2.400,18.065 1.764,17.874 C1.104,17.676 0.521,17.198 0.249,16.613 C-0.192,15.669 0.017,13.810 0.017,12.494 C0.017,9.931 0.017,7.367 0.017,4.804 C0.017,2.457 -0.173,0.879 1.553,0.202 C2.439,-0.145 4.402,0.055 5.573,0.055 C8.091,0.055 10.610,0.055 13.128,0.055 C15.521,0.055 17.109,-0.147 17.800,1.610 C18.122,2.430 17.947,4.179 17.947,5.267 C17.947,8.047 17.947,10.828 17.947,13.609 C17.947,15.227 18.038,16.639 17.148,17.349 C16.042,18.230 13.642,17.965 11.676,17.958 "/>
<path fill-rule="evenodd"  fill="rgb(255, 255, 255)"
 d="M7.414,6.016 C8.185,6.011 9.382,5.884 9.566,6.437 C9.785,7.094 9.243,9.124 9.837,9.398 C10.136,9.515 10.439,9.040 10.570,8.872 C10.984,8.340 11.373,7.752 11.670,7.112 C11.783,6.871 11.862,6.419 12.148,6.347 C12.919,6.341 13.689,6.336 14.460,6.331 C14.687,6.358 14.857,6.337 14.938,6.497 C15.119,6.795 14.731,7.270 14.619,7.444 C14.198,8.095 13.717,8.660 13.248,9.263 C13.116,9.432 12.758,9.718 12.850,10.059 C12.943,10.406 13.425,10.727 13.694,10.931 C14.022,11.179 14.319,11.529 14.571,11.848 C14.753,12.077 15.044,12.332 14.938,12.735 C14.660,12.935 14.411,12.975 13.886,12.975 C13.049,12.975 12.250,13.070 11.750,12.735 C11.282,12.421 10.765,11.490 10.220,11.367 C9.537,11.213 9.718,12.331 9.550,12.720 C9.406,13.052 8.444,13.044 7.940,12.960 C5.147,12.499 4.156,10.492 2.951,8.541 C2.666,8.081 2.422,7.591 2.186,7.083 C2.098,6.893 1.910,6.663 2.058,6.421 C2.453,6.290 4.294,6.219 4.593,6.437 C4.794,6.582 4.884,6.988 4.991,7.218 C5.193,7.564 5.395,7.910 5.597,8.255 C5.801,8.583 6.395,9.668 6.904,9.353 C7.118,8.849 7.278,7.259 6.904,6.782 C6.772,6.614 6.543,6.578 6.298,6.512 C6.298,6.487 6.298,6.461 6.298,6.437 C6.507,6.217 6.699,6.112 7.079,6.045 C7.191,6.035 7.302,6.026 7.414,6.016 Z"/>
</svg>