<svg 
 xmlns="http://www.w3.org/2000/svg"
 xmlns:xlink="http://www.w3.org/1999/xlink"
 width="18px" height="18px">
<path fill-rule="evenodd"  fill="rgb(27, 215, 65)"
 d="M8.512,-0.000 C13.098,0.141 15.962,2.790 17.301,5.573 C19.075,9.258 17.180,13.581 14.940,15.605 C13.332,17.057 10.631,18.525 7.352,17.801 C6.649,17.645 5.967,17.445 5.357,17.178 C5.124,17.052 4.890,16.926 4.656,16.800 C3.119,17.197 1.582,17.593 0.046,17.990 C0.459,16.485 0.873,14.978 1.286,13.472 C1.133,13.193 0.980,12.913 0.828,12.634 C0.560,12.021 0.358,11.338 0.208,10.631 C-0.518,7.228 1.532,3.954 3.067,2.352 C3.984,1.396 5.135,0.763 6.570,0.324 C7.128,0.153 7.953,0.220 8.512,-0.000 Z"/>
<path fill-rule="evenodd"  fill="rgb(255, 255, 255)"
 d="M5.735,4.761 C6.112,4.750 6.505,4.760 6.732,4.897 C6.870,5.328 7.730,6.824 7.595,7.196 C7.317,7.557 7.038,7.918 6.759,8.278 C7.333,9.683 8.670,10.677 10.129,11.200 C10.619,10.955 10.724,10.247 11.208,10.010 C11.527,9.928 13.474,10.917 13.581,11.173 C13.315,13.275 11.577,13.630 9.698,12.878 C7.750,12.097 5.668,10.301 4.845,8.413 C4.177,6.881 4.492,5.438 5.735,4.761 Z"/>
</svg>