<svg 
 xmlns="http://www.w3.org/2000/svg"
 xmlns:xlink="http://www.w3.org/1999/xlink"
 width="21px" height="15px">
<path fill-rule="evenodd"  fill="rgb(255, 0, 0)"
 d="M3.971,0.000 C7.251,0.000 10.532,0.000 13.811,0.000 C16.705,0.000 18.666,-0.121 19.956,1.521 C20.364,2.040 20.712,2.652 20.896,3.392 C21.028,3.922 20.984,4.637 20.984,5.286 C20.984,6.373 20.984,7.461 20.984,8.547 C21.042,10.852 21.031,12.129 20.021,13.371 C18.382,15.387 15.866,15.005 12.434,14.979 C10.430,14.979 8.425,14.979 6.421,14.979 C5.290,14.979 3.982,15.073 3.097,14.802 C2.275,14.551 1.499,14.044 1.019,13.437 C0.584,12.886 0.238,12.240 0.057,11.433 C-0.060,10.908 -0.008,10.221 -0.008,9.604 C-0.008,8.481 -0.008,7.357 -0.008,6.234 C-0.008,4.629 -0.036,3.209 0.538,2.225 C1.050,1.350 1.821,0.653 2.813,0.264 C3.162,0.127 3.594,0.153 3.971,0.000 Z"/>
<path fill-rule="evenodd"  fill="rgb(255, 255, 255)"
 d="M13.877,7.512 L7.536,11.190 L7.536,3.833 L13.877,7.512 Z"/>
</svg>